# xmcd
#
# Track frame offsets: 
#        150
#        12347
#        27017
#        40983
#        60815
#        77282
#        96751
#        112361
#        131970
#        149169
#        166820
#        181971
#        200667
#        222505
#        238387
#        249421
#        267149
#        281115
#        295137
#
# Disc length: 4138 seconds
#
# Revision: 0
# Processed by: cddbd v1.5.2PL0 Copyright (c) Steve Scherf et al.
# Submitted via: ExactAudioCopy v0.99pb5
#
DISCID=21102813
DTITLE=Various Artist - Moulin Blues 2010 Promo CD
DYEAR=2010
DGENRE=Blues
TTITLE0=Imelda May - Big Bad Handsome Man
TTITLE1=Thorbjorn Risager - 7 Steps To Heaven
TTITLE2=California Honeydrops - Miss Louise
TTITLE3=Eric Lindell - Give It Time
TTITLE4=Los Lonely Boys - Heaven
TTITLE5=Woodbrain - Broken Window
TTITLE6=Dirty Sweet - Baby Come Home
TTITLE7=Mannish Boys - Mona
TTITLE8=Cedric Burnside - Don't Just Sing
TTITLE9=Danlet Norgren - I Could Even Grow
TTITLE10=Insomniacs - At Least I'm Not With You
TTITLE11=Paladins - You And I
TTITLE12=Mike Zito - Pearl River
TTITLE13=Johnny Mastro - Spider
TTITLE14=Peyton Big Damn Band - Mama's Fried Potato
TTITLE15=Rhythm Chiefs - What's Your Color
TTITLE16=Rick Estrin and The Nightcats - Big Time
TTITLE17=Thomas Ford and Dirty Harmony - I Wouldn't Mind Dying
TTITLE18=Eli "Paperboy" Reed - Come And Get It
EXTD=
EXTT0=
EXTT1=
EXTT2=
EXTT3=
EXTT4=
EXTT5=
EXTT6=
EXTT7=
EXTT8=
EXTT9=
EXTT10=
EXTT11=
EXTT12=
EXTT13=
EXTT14=
EXTT15=
EXTT16=
EXTT17=
EXTT18=
PLAYORDER=
